SmallCaps Black Display.ufo
<glyph name="A.sc" format="1">
  <advance width="1194"/>
  <outline>
    <contour>
      <point x="651" y="1165" type="move" name="top"/>
    </contour>
    <contour>
      <point x="971" y="16" type="move" name="ogonek"/>
    </contour>
    <contour>
      <point x="453" y="0" type="move" name="bottom"/>
    </contour>
    <contour>
      <point x="-98" y="0" type="line"/>
      <point x="314" y="0" type="line"/>
      <point x="318" y="28" type="line"/>
      <point x="132" y="94" type="line"/>
      <point x="485" y="813" type="line"/>
      <point x="555" y="1073" type="line"/>
      <point x="512" y="1010" type="line"/>
      <point x="547" y="740" type="line"/>
      <point x="698" y="61" type="line"/>
      <point x="561" y="31" type="line"/>
      <point x="557" y="0" type="line"/>
      <point x="1183" y="0" type="line"/>
      <point x="1186" y="31" type="line"/>
      <point x="1082" y="64" type="line"/>
      <point x="853" y="1162" type="line"/>
      <point x="541" y="1159" type="line"/>
      <point x="39" y="100" type="line"/>
      <point x="-97" y="28" type="line"/>
    </contour>
    <contour>
      <point x="762" y="354" type="line"/>
      <point x="206" y="354" type="line"/>
      <point x="207" y="302" type="line"/>
      <point x="763" y="302" type="line"/>
    </contour>
  </outline>
</glyph>
<glyph name="B.sc" format="1">
  <advance width="1234"/>
  <outline>
    <contour>
      <point x="688" y="1165" type="move" name="top"/>
    </contour>
    <contour>
      <point x="504" y="0" type="move" name="bottom"/>
    </contour>
    <contour>
      <point x="622" y="-16" type="curve"/>
      <point x="947" y="-16"/>
      <point x="1203" y="91"/>
      <point x="1198" y="365" type="curve"/>
      <point x="1195" y="503"/>
      <point x="1078" y="610"/>
      <point x="845" y="610" type="curve"/>
      <point x="1076" y="640"/>
      <point x="1199" y="760"/>
      <point x="1196" y="936" type="curve"/>
      <point x="1194" y="1053"/>
      <point x="1074" y="1178"/>
      <point x="758" y="1178" type="curve"/>
      <point x="553" y="1178"/>
      <point x="550" y="1167"/>
      <point x="425" y="1165" type="curve"/>
      <point x="131" y="1165" type="line"/>
      <point x="127" y="1137" type="line"/>
      <point x="244" y="1107" type="line"/>
      <point x="95" y="57" type="line"/>
      <point x="-32" y="30" type="line"/>
      <point x="-36" y="0" type="line"/>
      <point x="259" y="0" type="line" smooth="yes"/>
      <point x="379" y="0"/>
      <point x="421" y="-16"/>
    </contour>
    <contour>
      <point x="349" y="74" type="curve"/>
      <point x="446" y="4" type="line"/>
      <point x="610" y="1158" type="line"/>
      <point x="478" y="1047" type="line"/>
      <point x="598" y="1127"/>
      <point x="597" y="1130"/>
      <point x="663" y="1130" type="curve"/>
      <point x="764" y="1130"/>
      <point x="851" y="1059"/>
      <point x="853" y="929" type="curve"/>
      <point x="856" y="732"/>
      <point x="730" y="623"/>
      <point x="615" y="622" type="curve"/>
      <point x="545" y="622"/>
      <point x="521" y="621"/>
      <point x="519" y="622" type="curve"/>
      <point x="511" y="568" type="line"/>
      <point x="530" y="570"/>
      <point x="562" y="572"/>
      <point x="610" y="572" type="curve"/>
      <point x="737" y="572"/>
      <point x="834" y="514"/>
      <point x="836" y="379" type="curve"/>
      <point x="840" y="162"/>
      <point x="744" y="32"/>
      <point x="589" y="32" type="curve"/>
      <point x="501" y="32"/>
      <point x="459" y="51"/>
    </contour>
  </outline>
</glyph>
<glyph name="C.sc" format="1">
  <advance width="1175"/>
  <outline>
    <contour>
      <point x="896" y="1165" type="move" name="top"/>
    </contour>
    <contour>
      <point x="672" y="0" type="move" name="bottom"/>
    </contour>
    <contour>
      <point x="561" y="-19" type="curve"/>
      <point x="863" y="-19"/>
      <point x="954" y="46"/>
      <point x="1037" y="44" type="curve"/>
      <point x="1109" y="369" type="line"/>
      <point x="923" y="369" type="line"/>
      <point x="906" y="310"/>
      <point x="837" y="137"/>
      <point x="814" y="107" type="curve"/>
      <point x="787" y="55"/>
      <point x="710" y="26"/>
      <point x="637" y="26" type="curve"/>
      <point x="471" y="26"/>
      <point x="434" y="278"/>
      <point x="431" y="421" type="curve"/>
      <point x="425" y="803"/>
      <point x="542" y="1135"/>
      <point x="751" y="1135" type="curve"/>
      <point x="796" y="1135"/>
      <point x="852" y="1133"/>
      <point x="882" y="1108" type="curve"/>
      <point x="909" y="782" type="line"/>
      <point x="1138" y="782" type="line"/>
      <point x="1196" y="1137" type="line"/>
      <point x="1073" y="1137"/>
      <point x="1003" y="1181"/>
      <point x="757" y="1181" type="curve"/>
      <point x="258" y="1181"/>
      <point x="45" y="814"/>
      <point x="51" y="466" type="curve"/>
      <point x="55" y="226"/>
      <point x="166" y="-19"/>
    </contour>
  </outline>
</glyph>
<glyph name="D.sc" format="1">
  <advance width="1324"/>
  <outline>
    <contour>
      <point x="740" y="1165" type="move" name="top"/>
    </contour>
    <contour>
      <point x="543" y="0" type="move" name="bottom"/>
    </contour>
    <contour>
      <point x="570" y="-19" type="curve"/>
      <point x="1087" y="-19"/>
      <point x="1319" y="317"/>
      <point x="1311" y="725" type="curve"/>
      <point x="1307" y="954"/>
      <point x="1189" y="1178"/>
      <point x="788" y="1178" type="curve"/>
      <point x="679" y="1178"/>
      <point x="556" y="1165"/>
      <point x="420" y="1165" type="curve"/>
      <point x="132" y="1165" type="line"/>
      <point x="128" y="1137" type="line"/>
      <point x="237" y="1107" type="line"/>
      <point x="88" y="57" type="line"/>
      <point x="-31" y="31" type="line"/>
      <point x="-35" y="0" type="line"/>
      <point x="246" y="0" type="line"/>
      <point x="317" y="0"/>
      <point x="472" y="-19"/>
    </contour>
    <contour>
      <point x="354" y="61" type="curve"/>
      <point x="444" y="24" type="line"/>
      <point x="603" y="1143" type="line"/>
      <point x="571" y="1105" type="line"/>
      <point x="594" y="1116"/>
      <point x="622" y="1134"/>
      <point x="717" y="1134" type="curve"/>
      <point x="897" y="1134"/>
      <point x="939" y="990"/>
      <point x="943" y="742" type="curve"/>
      <point x="949" y="458"/>
      <point x="889" y="26"/>
      <point x="557" y="26" type="curve"/>
      <point x="448" y="26"/>
      <point x="460" y="53"/>
    </contour>
  </outline>
</glyph>
<glyph name="E.sc" format="1">
  <advance width="1145"/>
  <outline>
    <contour>
      <point x="120" y="1165" type="move" name="topleft"/>
    </contour>
    <contour>
      <point x="673" y="1165" type="move" name="top"/>
    </contour>
    <contour>
      <point x="988" y="16" type="move" name="ogonek"/>
    </contour>
    <contour>
      <point x="547" y="0" type="move" name="bottom"/>
    </contour>
    <contour>
      <point x="-31" y="31" type="line"/>
      <point x="-36" y="0" type="line"/>
      <point x="1003" y="0" type="line"/>
      <point x="1114" y="370" type="line"/>
      <point x="944" y="386" type="line"/>
      <point x="758" y="61" type="line"/>
      <point x="449" y="40" type="line"/>
      <point x="526" y="569" type="line"/>
      <point x="902" y="559" type="line"/>
      <point x="920" y="645" type="line"/>
      <point x="532" y="620" type="line"/>
      <point x="604" y="1125" type="line"/>
      <point x="867" y="1105" type="line"/>
      <point x="958" y="863" type="line"/>
      <point x="1096" y="863" type="line"/>
      <point x="1112" y="1165" type="line"/>
      <point x="131" y="1165" type="line"/>
      <point x="127" y="1137" type="line"/>
      <point x="234" y="1107" type="line"/>
      <point x="85" y="57" type="line"/>
    </contour>
  </outline>
</glyph>
<glyph name="F.sc" format="1">
  <advance width="1081"/>
  <outline>
    <contour>
      <point x="597" y="-129" type="move" name="btm"/>
    </contour>
    <contour>
      <point x="670" y="1165" type="move" name="top"/>
    </contour>
    <contour>
      <point x="-32" y="30" type="line"/>
      <point x="-36" y="0" type="line"/>
      <point x="720" y="0" type="line"/>
      <point x="723" y="31" type="line"/>
      <point x="452" y="75" type="line"/>
      <point x="523" y="569" type="line"/>
      <point x="894" y="559" type="line"/>
      <point x="912" y="645" type="line"/>
      <point x="530" y="620" type="line"/>
      <point x="602" y="1125" type="line"/>
      <point x="874" y="1105" type="line"/>
      <point x="965" y="863" type="line"/>
      <point x="1103" y="863" type="line"/>
      <point x="1119" y="1165" type="line"/>
      <point x="131" y="1165" type="line"/>
      <point x="127" y="1137" type="line"/>
      <point x="234" y="1107" type="line"/>
      <point x="85" y="57" type="line"/>
    </contour>
  </outline>
</glyph>
<glyph name="G.sc" format="1">
  <advance width="1262"/>
  <outline>
    <contour>
      <point x="807" y="1165" type="move" name="top"/>
    </contour>
    <contour>
      <point x="608" y="0" type="move" name="bottom"/>
    </contour>
    <contour>
      <point x="614" y="-24" type="curve"/>
      <point x="788" y="-24"/>
      <point x="901" y="12"/>
      <point x="1004" y="34" type="curve"/>
      <point x="1050" y="35"/>
      <point x="1096" y="45"/>
      <point x="1142" y="42" type="curve"/>
      <point x="1214" y="582" type="line"/>
      <point x="729" y="582" type="line"/>
      <point x="725" y="575" type="line"/>
      <point x="864" y="521" type="line"/>
      <point x="805" y="4" type="line"/>
      <point x="761" y="9"/>
      <point x="711" y="20"/>
      <point x="650" y="20" type="curve"/>
      <point x="436" y="20"/>
      <point x="438" y="300"/>
      <point x="438" y="363" type="curve"/>
      <point x="429" y="845"/>
      <point x="530" y="1135"/>
      <point x="788" y="1135" type="curve"/>
      <point x="865" y="1135"/>
      <point x="930" y="1115"/>
      <point x="942" y="1106" type="curve"/>
      <point x="981" y="811" type="line"/>
      <point x="1200" y="811" type="line"/>
      <point x="1245" y="1143" type="line"/>
      <point x="1211" y="1142"/>
      <point x="1181" y="1146"/>
      <point x="1152" y="1153" type="curve"/>
      <point x="1075" y="1165"/>
      <point x="998" y="1184"/>
      <point x="794" y="1184" type="curve"/>
      <point x="241" y="1184"/>
      <point x="49" y="775"/>
      <point x="54" y="454" type="curve"/>
      <point x="58" y="213"/>
      <point x="169" y="-24"/>
    </contour>
  </outline>
</glyph>
<glyph name="H.sc" format="1">
  <advance width="1403"/>
  <outline>
    <contour>
      <point x="812" y="1165" type="move" name="top"/>
    </contour>
    <contour>
      <point x="650" y="0" type="move" name="bottom"/>
    </contour>
    <contour>
      <point x="-32" y="31" type="line"/>
      <point x="-36" y="0" type="line"/>
      <point x="565" y="0" type="line"/>
      <point x="571" y="31" type="line"/>
      <point x="450" y="60" type="line"/>
      <point x="599" y="1102" type="line"/>
      <point x="739" y="1137" type="line"/>
      <point x="742" y="1165" type="line"/>
      <point x="131" y="1165" type="line"/>
      <point x="127" y="1137" type="line"/>
      <point x="234" y="1102" type="line"/>
      <point x="85" y="60" type="line"/>
    </contour>
    <contour>
      <point x="712" y="33" type="line"/>
      <point x="708" y="0" type="line"/>
      <point x="1308" y="0" type="line"/>
      <point x="1313" y="33" type="line"/>
      <point x="1207" y="60" type="line"/>
      <point x="1356" y="1102" type="line"/>
      <point x="1476" y="1137" type="line"/>
      <point x="1477" y="1165" type="line"/>
      <point x="878" y="1165" type="line"/>
      <point x="874" y="1137" type="line"/>
      <point x="991" y="1102" type="line"/>
      <point x="842" y="60" type="line"/>
    </contour>
    <contour>
      <point x="1027" y="626" type="line"/>
      <point x="431" y="626" type="line"/>
      <point x="432" y="574" type="line"/>
      <point x="1028" y="574" type="line"/>
    </contour>
  </outline>
</glyph>
<glyph name="I.sc" format="1">
  <advance width="695"/>
  <outline>
    <contour>
      <point x="485" y="-129" type="move" name="btm"/>
    </contour>
    <contour>
      <point x="168" y="1165" type="move" name="topleft"/>
    </contour>
    <contour>
      <point x="477" y="1165" type="move" name="top"/>
    </contour>
    <contour>
      <point x="529" y="16" type="move" name="ogonek"/>
    </contour>
    <contour>
      <point x="317" y="0" type="move" name="bottom"/>
    </contour>
    <contour>
      <point x="-18" y="31" type="line"/>
      <point x="-22" y="0" type="line"/>
      <point x="579" y="0" type="line"/>
      <point x="583" y="31" type="line"/>
      <point x="465" y="57" type="line"/>
      <point x="614" y="1107" type="line"/>
      <point x="753" y="1137" type="line"/>
      <point x="757" y="1165" type="line"/>
      <point x="145" y="1165" type="line"/>
      <point x="141" y="1137" type="line"/>
      <point x="249" y="1107" type="line"/>
      <point x="101" y="57" type="line"/>
    </contour>
  </outline>
</glyph>
<glyph name="J.sc" format="1">
  <advance width="648"/>
  <outline>
    <contour>
      <point x="267" y="-129" type="move" name="btm"/>
    </contour>
    <contour>
      <point x="456" y="1165" type="move" name="top"/>
    </contour>
    <contour>
      <point x="-97" y="-247" type="line"/>
      <point x="264" y="-176"/>
      <point x="411" y="6"/>
      <point x="461" y="162" type="curve"/>
      <point x="520" y="432"/>
      <point x="540" y="628"/>
      <point x="603" y="1106" type="curve"/>
      <point x="722" y="1137" type="line"/>
      <point x="725" y="1165" type="line"/>
      <point x="125" y="1165" type="line"/>
      <point x="120" y="1137" type="line"/>
      <point x="246" y="1103" type="line"/>
      <point x="217" y="772"/>
      <point x="171" y="494"/>
      <point x="122" y="160" type="curve"/>
      <point x="98" y="6"/>
      <point x="37" y="-147"/>
      <point x="-130" y="-204" type="curve"/>
    </contour>
  </outline>
</glyph>
<glyph name="K.sc" format="1">
  <advance width="1279"/>
  <outline>
    <contour>
      <point x="841" y="1165" type="move" name="top"/>
    </contour>
    <contour>
      <point x="752" y="0" type="move" name="bottom"/>
    </contour>
    <contour>
      <point x="-32" y="30" type="line"/>
      <point x="-36" y="0" type="line"/>
      <point x="559" y="0" type="line"/>
      <point x="565" y="30" type="line"/>
      <point x="445" y="57" type="line"/>
      <point x="594" y="1107" type="line"/>
      <point x="734" y="1137" type="line"/>
      <point x="737" y="1165" type="line"/>
      <point x="131" y="1165" type="line"/>
      <point x="127" y="1137" type="line"/>
      <point x="234" y="1107" type="line"/>
      <point x="85" y="57" type="line"/>
    </contour>
    <contour>
      <point x="434" y="491" type="line"/>
      <point x="476" y="440" type="line"/>
      <point x="1248" y="1103" type="line"/>
      <point x="1379" y="1139" type="line"/>
      <point x="1383" y="1165" type="line"/>
      <point x="989" y="1165" type="line"/>
      <point x="985" y="1139" type="line"/>
      <point x="1121" y="1104" type="line"/>
    </contour>
    <contour>
      <point x="911" y="0" type="curve"/>
      <point x="1337" y="0" type="line"/>
      <point x="1342" y="32" type="line"/>
      <point x="1270" y="52" type="line"/>
      <point x="1193" y="87"/>
      <point x="1102" y="242"/>
      <point x="1019" y="407" type="curve"/>
      <point x="933" y="577"/>
      <point x="885" y="691"/>
      <point x="824" y="778" type="curve"/>
      <point x="587" y="584" type="line"/>
      <point x="625" y="515"/>
      <point x="725" y="257"/>
      <point x="790" y="145" type="curve"/>
      <point x="846" y="46"/>
      <point x="850" y="0"/>
    </contour>
  </outline>
</glyph>
<glyph name="L.sc" format="1">
  <advance width="1116"/>
  <outline>
    <contour>
      <point x="776" y="870" type="move" name="car"/>
    </contour>
    <contour>
      <point x="462" y="1165" type="move" name="top"/>
    </contour>
    <contour>
      <point x="549" y="0" type="move" name="bottom"/>
    </contour>
    <contour>
      <point x="-35" y="0" type="line"/>
      <point x="990" y="0" type="line"/>
      <point x="1094" y="486" type="line"/>
      <point x="924" y="506" type="line"/>
      <point x="753" y="58" type="line"/>
      <point x="448" y="31" type="line"/>
      <point x="600" y="1105" type="line"/>
      <point x="738" y="1137" type="line"/>
      <point x="741" y="1165" type="line"/>
      <point x="132" y="1165" type="line"/>
      <point x="128" y="1137" type="line"/>
      <point x="235" y="1102" type="line"/>
      <point x="87" y="60" type="line"/>
      <point x="-31" y="33" type="line"/>
    </contour>
  </outline>
</glyph>
<glyph name="M.sc" format="1">
  <advance width="1711"/>
  <outline>
    <contour>
      <point x="942" y="1165" type="move" name="top"/>
    </contour>
    <contour>
      <point x="726" y="0" type="move" name="bottom"/>
    </contour>
    <contour>
      <point x="-82" y="31" type="line"/>
      <point x="-84" y="0" type="line"/>
      <point x="308" y="0" type="line"/>
      <point x="311" y="31" type="line"/>
      <point x="150" y="83" type="line"/>
      <point x="329" y="820" type="line"/>
      <point x="388" y="1067" type="line"/>
      <point x="404" y="823" type="line"/>
      <point x="498" y="0" type="line"/>
      <point x="800" y="0" type="line"/>
      <point x="1103" y="821" type="line"/>
      <point x="1186" y="1063" type="line"/>
      <point x="1179" y="823" type="line"/>
      <point x="1143" y="57" type="line"/>
      <point x="1000" y="30" type="line"/>
      <point x="996" y="0" type="line"/>
      <point x="1658" y="0" type="line"/>
      <point x="1662" y="28" type="line"/>
      <point x="1506" y="57" type="line"/>
      <point x="1538" y="1107" type="line"/>
      <point x="1701" y="1138" type="line"/>
      <point x="1706" y="1165" type="line"/>
      <point x="1157" y="1165" type="line"/>
      <point x="881" y="416" type="line"/>
      <point x="804" y="186" type="line"/>
      <point x="785" y="416" type="line"/>
      <point x="704" y="1165" type="line"/>
      <point x="185" y="1165" type="line"/>
      <point x="180" y="1137" type="line"/>
      <point x="337" y="1107" type="line"/>
      <point x="61" y="83" type="line"/>
    </contour>
  </outline>
</glyph>
<glyph name="N.sc" format="1">
  <advance width="1272"/>
  <outline>
    <contour>
      <point x="915" y="1165" type="move" name="top"/>
    </contour>
    <contour>
      <point x="745" y="0" type="move" name="bottom"/>
    </contour>
    <contour>
      <point x="-32" y="28" type="line"/>
      <point x="-33" y="0" type="line"/>
      <point x="385" y="0" type="line"/>
      <point x="389" y="28" type="line"/>
      <point x="186" y="77" type="line"/>
      <point x="311" y="1132" type="line"/>
      <point x="256" y="1125" type="line"/>
      <point x="379" y="826" type="line"/>
      <point x="828" y="0" type="line"/>
      <point x="1055" y="0" type="line"/>
      <point x="1210" y="1088" type="line"/>
      <point x="1351" y="1137" type="line"/>
      <point x="1352" y="1165" type="line"/>
      <point x="934" y="1165" type="line"/>
      <point x="930" y="1137" type="line"/>
      <point x="1124" y="1088" type="line"/>
      <point x="1033" y="201" type="line"/>
      <point x="1075" y="253" type="line"/>
      <point x="963" y="480" type="line"/>
      <point x="590" y="1165" type="line"/>
      <point x="129" y="1165" type="line"/>
      <point x="124" y="1134" type="line"/>
      <point x="257" y="1106" type="line"/>
      <point x="100" y="77" type="line"/>
    </contour>
  </outline>
</glyph>
<glyph name="O.sc" format="1">
  <advance width="1302"/>
  <outline>
    <contour>
      <point x="141" y="1165" type="move" name="topleft"/>
    </contour>
    <contour>
      <point x="678" y="584" type="move" name="center"/>
    </contour>
    <contour>
      <point x="596" y="0" type="move" name="bottom"/>
    </contour>
    <contour>
      <point x="755" y="1165" type="move" name="top"/>
    </contour>
    <contour>
      <point x="1119" y="1165" type="move" name="topright"/>
    </contour>
    <contour>
      <point x="765" y="24" type="move" name="ogonek"/>
    </contour>
    <contour>
      <point x="581" y="-20" type="curve"/>
      <point x="1080" y="-20"/>
      <point x="1294" y="378"/>
      <point x="1289" y="694" type="curve"/>
      <point x="1286" y="873"/>
      <point x="1185" y="1181"/>
      <point x="765" y="1181" type="curve"/>
      <point x="260" y="1181"/>
      <point x="47" y="774"/>
      <point x="52" y="466" type="curve"/>
      <point x="55" y="295"/>
      <point x="157" y="-20"/>
    </contour>
    <contour>
      <point x="592" y="31" type="curve"/>
      <point x="430" y="31"/>
      <point x="418" y="365"/>
      <point x="418" y="371" type="curve"/>
      <point x="412" y="725"/>
      <point x="530" y="1129"/>
      <point x="747" y="1131" type="curve"/>
      <point x="920" y="1132"/>
      <point x="923" y="781"/>
      <point x="922" y="795" type="curve"/>
      <point x="929" y="408"/>
      <point x="808" y="31"/>
    </contour>
  </outline>
</glyph>
<glyph name="P.sc" format="1">
  <advance width="1175"/>
  <outline>
    <contour>
      <point x="287" y="-130" type="move" name="btm"/>
    </contour>
    <contour>
      <point x="743" y="1165" type="move" name="top"/>
    </contour>
    <contour>
      <point x="-32" y="30" type="line"/>
      <point x="-36" y="0" type="line"/>
      <point x="712" y="0" type="line"/>
      <point x="715" y="31" type="line"/>
      <point x="444" y="75" type="line"/>
      <point x="594" y="1137" type="line"/>
      <point x="584" y="1122" type="line"/>
      <point x="610" y="1125"/>
      <point x="625" y="1130"/>
      <point x="673" y="1130" type="curve"/>
      <point x="791" y="1130"/>
      <point x="831" y="1028"/>
      <point x="834" y="886" type="curve"/>
      <point x="837" y="737"/>
      <point x="774" y="449"/>
      <point x="565" y="449" type="curve"/>
      <point x="545" y="449"/>
      <point x="517" y="451"/>
      <point x="470" y="462" type="curve"/>
      <point x="464" y="407" type="line"/>
      <point x="506" y="399"/>
      <point x="571" y="396"/>
      <point x="621" y="396" type="curve"/>
      <point x="1140" y="396"/>
      <point x="1206" y="706"/>
      <point x="1204" y="852" type="curve"/>
      <point x="1200" y="1047"/>
      <point x="1056" y="1175"/>
      <point x="748" y="1173" type="curve"/>
      <point x="602" y="1172"/>
      <point x="492" y="1165"/>
      <point x="410" y="1165" type="curve"/>
      <point x="131" y="1165" type="line"/>
      <point x="127" y="1137" type="line"/>
      <point x="234" y="1107" type="line"/>
      <point x="85" y="57" type="line"/>
    </contour>
  </outline>
</glyph>
<glyph name="Q.sc" format="1">
  <advance width="1302"/>
  <outline>
    <contour>
      <point x="908" y="-396" type="curve"/>
      <point x="1033" y="-396"/>
      <point x="1148" y="-371"/>
      <point x="1206" y="-336" type="curve"/>
      <point x="1202" y="-89" type="line"/>
      <point x="1123" y="-109"/>
      <point x="1052" y="-114"/>
      <point x="980" y="-114" type="curve"/>
      <point x="831" y="-114"/>
      <point x="696" y="-114"/>
      <point x="696" y="20" type="curve"/>
      <point x="639" y="-2" type="line"/>
      <point x="505" y="-168"/>
      <point x="634" y="-396"/>
    </contour>
    <contour>
      <point x="581" y="-20" type="curve"/>
      <point x="1080" y="-20"/>
      <point x="1294" y="378"/>
      <point x="1289" y="694" type="curve"/>
      <point x="1286" y="873"/>
      <point x="1185" y="1181"/>
      <point x="765" y="1181" type="curve"/>
      <point x="260" y="1181"/>
      <point x="47" y="774"/>
      <point x="52" y="466" type="curve"/>
      <point x="55" y="295"/>
      <point x="157" y="-20"/>
    </contour>
    <contour>
      <point x="592" y="31" type="curve"/>
      <point x="430" y="31"/>
      <point x="418" y="365"/>
      <point x="418" y="371" type="curve"/>
      <point x="412" y="725"/>
      <point x="530" y="1129"/>
      <point x="747" y="1131" type="curve"/>
      <point x="920" y="1132"/>
      <point x="923" y="781"/>
      <point x="922" y="795" type="curve"/>
      <point x="929" y="408"/>
      <point x="808" y="31"/>
    </contour>
  </outline>
</glyph>
<glyph name="R.sc" format="1">
  <advance width="1272"/>
  <outline>
    <contour>
      <point x="654" y="1165" type="move" name="top"/>
    </contour>
    <contour>
      <point x="624" y="0" type="move" name="bottom"/>
    </contour>
    <contour>
      <point x="-32" y="30" type="line"/>
      <point x="-36" y="0" type="line"/>
      <point x="550" y="0" type="line"/>
      <point x="556" y="30" type="line"/>
      <point x="440" y="57" type="line"/>
      <point x="594" y="1148" type="line"/>
      <point x="577" y="1113" type="line"/>
      <point x="597" y="1126"/>
      <point x="625" y="1130"/>
      <point x="663" y="1130" type="curve"/>
      <point x="793" y="1130"/>
      <point x="842" y="1027"/>
      <point x="845" y="887" type="curve"/>
      <point x="848" y="739"/>
      <point x="798" y="523"/>
      <point x="587" y="541" type="curve"/>
      <point x="547" y="545"/>
      <point x="522" y="542"/>
      <point x="498" y="548" type="curve"/>
      <point x="491" y="492" type="line"/>
      <point x="532" y="492"/>
      <point x="561" y="492"/>
      <point x="636" y="492" type="curve"/>
      <point x="674" y="454"/>
      <point x="713" y="332"/>
      <point x="748" y="217" type="curve"/>
      <point x="779" y="116"/>
      <point x="827" y="0"/>
      <point x="871" y="0" type="curve"/>
      <point x="1259" y="0" type="line"/>
      <point x="1263" y="32" type="line"/>
      <point x="1190" y="45"/>
      <point x="1154" y="155"/>
      <point x="1111" y="258" type="curve"/>
      <point x="1047" y="406"/>
      <point x="977" y="539"/>
      <point x="768" y="554" type="curve"/>
      <point x="726" y="502" type="line"/>
      <point x="1065" y="532"/>
      <point x="1198" y="706"/>
      <point x="1195" y="886" type="curve"/>
      <point x="1192" y="1054"/>
      <point x="1080" y="1175"/>
      <point x="719" y="1175" type="curve"/>
      <point x="603" y="1175"/>
      <point x="521" y="1165"/>
      <point x="401" y="1165" type="curve"/>
      <point x="131" y="1165" type="line"/>
      <point x="127" y="1137" type="line"/>
      <point x="234" y="1107" type="line"/>
      <point x="85" y="57" type="line"/>
    </contour>
  </outline>
</glyph>
<glyph name="S.sc" format="1">
  <advance width="1042"/>
  <outline>
    <contour>
      <point x="630" y="1165" type="move" name="top"/>
    </contour>
    <contour>
      <point x="445" y="0" type="move" name="bottom"/>
    </contour>
    <contour>
      <point x="450" y="-19" type="curve"/>
      <point x="816" y="-19"/>
      <point x="991" y="135"/>
      <point x="987" y="333" type="curve"/>
      <point x="985" y="480"/>
      <point x="862" y="583"/>
      <point x="715" y="665" type="curve"/>
      <point x="532" y="767"/>
      <point x="449" y="826"/>
      <point x="447" y="921" type="curve"/>
      <point x="444" y="1055"/>
      <point x="520" y="1134"/>
      <point x="646" y="1134" type="curve"/>
      <point x="707" y="1134"/>
      <point x="751" y="1117"/>
      <point x="770" y="1101" type="curve"/>
      <point x="795" y="890" type="line"/>
      <point x="993" y="890" type="line"/>
      <point x="1036" y="1123" type="line"/>
      <point x="979" y="1152"/>
      <point x="855" y="1179"/>
      <point x="664" y="1179" type="curve"/>
      <point x="391" y="1179"/>
      <point x="137" y="1068"/>
      <point x="141" y="807" type="curve"/>
      <point x="144" y="654"/>
      <point x="268" y="556"/>
      <point x="423" y="468" type="curve"/>
      <point x="596" y="371"/>
      <point x="644" y="317"/>
      <point x="647" y="212" type="curve"/>
      <point x="650" y="111"/>
      <point x="600" y="27"/>
      <point x="457" y="27" type="curve"/>
      <point x="378" y="27"/>
      <point x="310" y="70"/>
      <point x="286" y="100" type="curve"/>
      <point x="269" y="303" type="line"/>
      <point x="75" y="303" type="line"/>
      <point x="24" y="59" type="line"/>
      <point x="68" y="31"/>
      <point x="280" y="-19"/>
    </contour>
  </outline>
</glyph>
<glyph name="T.sc" format="1">
  <advance width="1260"/>
  <outline>
    <contour>
      <point x="727" y="1165" type="move" name="top"/>
    </contour>
    <contour>
      <point x="575" y="0" type="move" name="bottom"/>
    </contour>
    <contour>
      <point x="194" y="0" type="line"/>
      <point x="979" y="0" type="line"/>
      <point x="982" y="33" type="line"/>
      <point x="759" y="79" type="line"/>
      <point x="908" y="1134" type="line"/>
      <point x="1043" y="1133" type="line"/>
      <point x="1120" y="651" type="line"/>
      <point x="1265" y="649" type="line"/>
      <point x="1308" y="1165" type="line"/>
      <point x="157" y="1165" type="line"/>
      <point x="70" y="649" type="line"/>
      <point x="237" y="648" type="line"/>
      <point x="414" y="1133" type="line"/>
      <point x="559" y="1134" type="line"/>
      <point x="410" y="79" type="line"/>
      <point x="198" y="33" type="line"/>
    </contour>
  </outline>
</glyph>
<glyph name="U.sc" format="1">
  <advance width="1239"/>
  <outline>
    <contour>
      <point x="800" y="1165" type="move" name="top"/>
    </contour>
    <contour>
      <point x="838" y="16" type="move" name="ogonek"/>
    </contour>
    <contour>
      <point x="1366" y="1165" type="move" name="topright"/>
    </contour>
    <contour>
      <point x="626" y="0" type="move" name="bottom"/>
    </contour>
    <contour>
      <point x="604" y="-16" type="curve"/>
      <point x="994" y="-16"/>
      <point x="1076" y="182"/>
      <point x="1122" y="479" type="curve"/>
      <point x="1220" y="1107" type="line"/>
      <point x="1321" y="1137" type="line"/>
      <point x="1322" y="1165" type="line"/>
      <point x="996" y="1165" type="line"/>
      <point x="992" y="1137" type="line"/>
      <point x="1137" y="1107" type="line"/>
      <point x="1054" y="480" type="line" smooth="yes"/>
      <point x="1021" y="231"/>
      <point x="942" y="85"/>
      <point x="704" y="85" type="curve"/>
      <point x="527" y="85"/>
      <point x="474" y="191"/>
      <point x="472" y="303" type="curve"/>
      <point x="471" y="357"/>
      <point x="477" y="417"/>
      <point x="486" y="480" type="curve"/>
      <point x="576" y="1107" type="line"/>
      <point x="725" y="1137" type="line"/>
      <point x="728" y="1165" type="line"/>
      <point x="122" y="1165" type="line"/>
      <point x="118" y="1137" type="line"/>
      <point x="216" y="1107" type="line"/>
      <point x="126" y="481" type="line" smooth="yes"/>
      <point x="120" y="434"/>
      <point x="117" y="392"/>
      <point x="118" y="352" type="curve"/>
      <point x="122" y="106"/>
      <point x="265" y="-16"/>
    </contour>
  </outline>
</glyph>
<glyph name="V.sc" format="1">
  <advance width="1177"/>
  <outline>
    <contour>
      <point x="869" y="1301" type="move" name="top"/>
    </contour>
    <contour>
      <point x="151" y="1108" type="line"/>
      <point x="381" y="2" type="line"/>
      <point x="680" y="1" type="line"/>
      <point x="1184" y="1110" type="line"/>
      <point x="1310" y="1139" type="line"/>
      <point x="1315" y="1165" type="line"/>
      <point x="941" y="1165" type="line"/>
      <point x="937" y="1139" type="line"/>
      <point x="1078" y="1110" type="line"/>
      <point x="724" y="257" type="line"/>
      <point x="652" y="65" type="line"/>
      <point x="687" y="108" type="line"/>
      <point x="645" y="390" type="line"/>
      <point x="523" y="1108" type="line"/>
      <point x="659" y="1135" type="line"/>
      <point x="663" y="1165" type="line"/>
      <point x="48" y="1165" type="line"/>
      <point x="45" y="1135" type="line"/>
    </contour>
  </outline>
</glyph>
<glyph name="W.sc" format="1">
  <advance width="1910"/>
  <outline>
    <contour>
      <point x="1057" y="1165" type="move" name="top"/>
    </contour>
    <contour>
      <point x="839" y="0" type="move" name="bottom"/>
    </contour>
    <contour>
      <point x="413" y="9" type="line"/>
      <point x="712" y="5" type="line"/>
      <point x="1176" y="1237" type="line"/>
      <point x="1069" y="1239" type="line"/>
      <point x="750" y="311" type="line"/>
      <point x="681" y="77" type="line"/>
      <point x="719" y="160" type="line"/>
      <point x="678" y="475" type="line"/>
      <point x="522" y="1104" type="line"/>
      <point x="658" y="1134" type="line"/>
      <point x="662" y="1165" type="line"/>
      <point x="46" y="1165" type="line"/>
      <point x="43" y="1134" type="line"/>
      <point x="150" y="1101" type="line"/>
    </contour>
    <contour>
      <point x="1160" y="9" type="line"/>
      <point x="1459" y="5" type="line"/>
      <point x="1917" y="1102" type="line"/>
      <point x="2043" y="1140" type="line"/>
      <point x="2047" y="1165" type="line"/>
      <point x="1675" y="1165" type="line"/>
      <point x="1670" y="1140" type="line"/>
      <point x="1810" y="1104" type="line"/>
      <point x="1495" y="294" type="line"/>
      <point x="1427" y="77" type="line"/>
      <point x="1466" y="160" type="line"/>
      <point x="1424" y="475" type="line"/>
      <point x="1266" y="1104" type="line"/>
      <point x="1404" y="1134" type="line"/>
      <point x="1408" y="1165" type="line"/>
      <point x="793" y="1165" type="line"/>
      <point x="790" y="1134" type="line"/>
      <point x="894" y="1101" type="line"/>
    </contour>
  </outline>
</glyph>
<glyph name="X.sc" format="1">
  <advance width="1343"/>
  <outline>
    <contour>
      <point x="867" y="1301" type="move" name="top"/>
    </contour>
    <contour>
      <point x="609" y="0" type="move" name="bottom"/>
    </contour>
    <contour>
      <point x="-51" y="30" type="line"/>
      <point x="-56" y="0" type="line"/>
      <point x="397" y="0" type="line"/>
      <point x="402" y="30" type="line"/>
      <point x="227" y="67" type="line"/>
      <point x="615" y="511" type="line"/>
      <point x="811" y="625" type="line"/>
      <point x="1272" y="1097" type="line"/>
      <point x="1420" y="1137" type="line"/>
      <point x="1424" y="1165" type="line"/>
      <point x="990" y="1165" type="line"/>
      <point x="983" y="1137" type="line"/>
      <point x="1166" y="1097" type="line"/>
      <point x="781" y="665" type="line"/>
      <point x="583" y="549" type="line"/>
      <point x="124" y="68" type="line"/>
    </contour>
    <contour>
      <point x="611" y="30" type="line"/>
      <point x="606" y="0" type="line"/>
      <point x="1272" y="0" type="line"/>
      <point x="1276" y="30" type="line"/>
      <point x="1146" y="67" type="line"/>
      <point x="836" y="678" type="line"/>
      <point x="831" y="689" type="line"/>
      <point x="654" y="1097" type="line"/>
      <point x="806" y="1139" type="line"/>
      <point x="813" y="1166" type="line"/>
      <point x="142" y="1166" type="line"/>
      <point x="137" y="1138" type="line"/>
      <point x="262" y="1097" type="line"/>
      <point x="557" y="506" type="line"/>
      <point x="564" y="492" type="line"/>
      <point x="759" y="68" type="line"/>
    </contour>
  </outline>
</glyph>
<glyph name="Y.sc" format="1">
  <advance width="1099"/>
  <outline>
    <contour>
      <point x="451" y="-130" type="move" name="btm"/>
    </contour>
    <contour>
      <point x="74" y="1165" type="move" name="topleft"/>
    </contour>
    <contour>
      <point x="698" y="1165" type="move" name="top"/>
    </contour>
    <contour>
      <point x="459" y="0" type="move" name="bottom"/>
    </contour>
    <contour>
      <point x="128" y="31" type="line"/>
      <point x="124" y="0" type="line"/>
      <point x="908" y="0" type="line"/>
      <point x="911" y="31" type="line"/>
      <point x="687" y="67" type="line"/>
      <point x="761" y="592" type="line"/>
      <point x="690" y="444" type="line"/>
      <point x="1128" y="1110" type="line"/>
      <point x="1254" y="1139" type="line"/>
      <point x="1259" y="1165" type="line"/>
      <point x="901" y="1165" type="line"/>
      <point x="897" y="1139" type="line"/>
      <point x="1020" y="1110" type="line"/>
      <point x="757" y="666" type="line"/>
      <point x="646" y="478" type="line"/>
      <point x="719" y="547" type="line"/>
      <point x="653" y="715" type="line"/>
      <point x="501" y="1106" type="line"/>
      <point x="631" y="1139" type="line"/>
      <point x="635" y="1165" type="line"/>
      <point x="41" y="1165" type="line"/>
      <point x="37" y="1139" type="line"/>
      <point x="137" y="1110" type="line"/>
      <point x="451" y="424" type="line"/>
      <point x="420" y="641" type="line"/>
      <point x="338" y="67" type="line"/>
    </contour>
  </outline>
</glyph>
<glyph name="Z.sc" format="1">
  <advance width="1136"/>
  <outline>
    <contour>
      <point x="652" y="1165" type="move" name="top"/>
    </contour>
    <contour>
      <point x="493" y="0" type="move" name="bottom"/>
    </contour>
    <contour>
      <point x="-14" y="22" type="line"/>
      <point x="-4" y="0" type="line"/>
      <point x="1005" y="0" type="line"/>
      <point x="1069" y="362" type="line"/>
      <point x="905" y="378" type="line"/>
      <point x="727" y="61" type="line"/>
      <point x="340" y="41" type="line"/>
      <point x="452" y="161" type="line"/>
      <point x="1165" y="1142" type="line"/>
      <point x="1154" y="1165" type="line"/>
      <point x="198" y="1165" type="line"/>
      <point x="147" y="826" type="line"/>
      <point x="313" y="827" type="line"/>
      <point x="447" y="1103" type="line"/>
      <point x="812" y="1123" type="line"/>
      <point x="701" y="1005" type="line"/>
    </contour>
  </outline>
</glyph>
